<svg width="1186" height="1186" viewBox="0 0 1186 1186" fill="none" xmlns="http://www.w3.org/2000/svg">
<g clip-path="url(#clip0_14_459)">
<circle cx="593" cy="593" r="593" fill="white"/>
<path d="M412.875 578.23C395.77 544.238 368.75 517.358 357.669 523.31C356.018 524.197 348.283 530.236 340.48 536.731C332.678 543.226 321.412 550.996 315.445 553.997C305.587 558.956 303.222 559.454 289.536 559.454C275.652 559.454 273.566 558.998 262.843 553.613C246.153 545.232 244.264 541.391 246.776 520.949C248.576 506.305 251.853 494.21 260.131 471.661C262.326 465.68 264.464 452.874 266.063 436.127C268.425 411.384 268.98 408.971 276.148 392.284C280.321 382.572 283.735 373.488 283.735 372.098C283.735 370.708 279.264 363.321 273.801 355.683C268.337 348.045 262.674 339.488 261.216 336.669C257.516 329.514 256.35 313.058 258.496 298.258C261.156 279.909 263.44 273.233 268.94 267.734C273.59 263.083 274.026 262.969 276.961 265.625C278.668 267.17 283.611 276.459 287.946 286.267C301.989 318.045 311.004 331.638 318.038 331.638C323.717 331.638 325.087 327.825 326.872 307.05C328.354 289.806 328.962 287.628 336.155 273.817C345.82 255.258 349.28 250.704 352.716 252.022C356.09 253.317 361.978 264.956 368.93 284.072C373.694 297.172 374.53 301.948 375.465 321.426C376.786 348.932 375.997 348.025 408.16 358.994C447.901 372.547 457.088 378.227 503.755 418.095C517.827 430.117 532.778 441.616 536.98 443.651C545.032 447.549 569.203 449.852 604.11 450.047C619.783 450.135 620.275 450.01 672.539 432.67C763.821 402.385 782.921 398.303 802.402 404.916C824.214 412.32 848.694 424.154 855.872 430.763C865.648 439.765 881.132 463.333 887.848 479.433L893.38 492.695L892.348 516.895C891.399 539.142 888.955 559.106 884.429 581.568L882.663 590.331H650.814H418.964L412.875 578.23ZM815.007 555.975L824.721 548.921L837.296 557.943C844.212 562.905 850.503 566.965 851.275 566.965C852.654 566.965 850.248 557.486 845.333 543.557C843.964 539.678 842.844 536.297 842.844 536.044C842.844 535.792 848.952 531.192 856.416 525.823L869.987 516.061L854.33 514.786C845.718 514.084 837.903 513.234 836.963 512.897C836.023 512.559 833.063 505.428 830.385 497.049C827.708 488.671 825.003 482.387 824.374 483.083C823.746 483.78 821.181 490.6 818.674 498.24C816.168 505.879 813.258 512.44 812.208 512.82C811.158 513.2 803.33 514.084 794.812 514.786L779.324 516.061L792.659 525.694C799.993 530.992 805.691 536.25 805.321 537.377C802.663 545.477 796.113 567.314 796.113 568.077C796.113 569.202 801.871 565.514 815.007 555.975ZM464.051 557.954L476.502 548.944L484.847 554.97C489.437 558.284 495.248 562.474 497.761 564.279C500.274 566.085 502.779 567.113 503.328 566.565C503.877 566.016 502.384 559.201 500.011 551.421C497.637 543.641 495.696 536.812 495.696 536.247C495.696 535.682 501.837 530.721 509.343 525.223L522.991 515.226L516.436 515.215C512.832 515.208 504.84 514.726 498.677 514.144L487.472 513.086L482.78 499.01C480.199 491.268 477.374 484.934 476.502 484.934C475.63 484.934 472.796 491.297 470.204 499.074L465.491 513.213L448.475 514.637L431.46 516.061L443.633 524.902C450.328 529.764 456.175 534.706 456.627 535.884C457.079 537.062 455.549 543.973 453.228 551.243C450.906 558.513 448.997 565.025 448.985 565.713C448.942 568.27 451.905 566.744 464.051 557.954ZM580.247 558.439C594.556 548.784 593.399 548.703 609.618 560.501C614.905 564.346 619.647 567.075 620.156 566.566C620.665 566.057 619.098 559.138 616.674 551.19C611.571 534.458 611.119 535.61 627.331 523.99L638.394 516.061L621.367 514.637L604.34 513.213L599.115 497.53C596.242 488.904 593.639 481.847 593.331 481.847C593.024 481.847 590.421 488.904 587.547 497.53L582.322 513.213L565.409 514.637L548.495 516.061L561.316 525.697C568.368 530.997 574.138 535.879 574.138 536.546C574.138 537.212 572.271 543.766 569.99 551.109C565.607 565.221 565.246 566.965 566.703 566.965C567.203 566.965 573.298 563.128 580.247 558.439ZM698.603 557.633C705.067 553.021 710.414 550.335 711.955 550.927C713.369 551.47 719.399 555.391 725.355 559.64C731.31 563.89 736.645 566.906 737.209 566.342C737.773 565.777 736.27 558.801 733.869 550.839C731.468 542.876 729.88 535.752 730.34 535.008C730.8 534.263 736.823 529.712 743.725 524.893C750.626 520.075 755.661 515.983 754.913 515.8C754.165 515.617 746.353 514.977 737.552 514.377L721.55 513.286L716.793 498.401C714.176 490.214 711.527 483.516 710.904 483.516C709.732 483.516 703.719 499.143 701.701 507.433C700.285 513.252 700.364 513.224 681.007 514.786L665.206 516.061L678.059 525.24C685.128 530.289 690.925 535.602 690.94 537.048C690.955 538.494 689.089 545.197 686.794 551.944C684.5 558.691 682.622 564.911 682.622 565.767C682.622 568.17 686.86 566.013 698.603 557.633Z" fill="#3333FF"/>
<path d="M788.379 925.934C781.674 921.845 777.899 916.423 778.952 912.396C779.408 910.652 787.211 901.384 796.292 891.802C810.411 876.902 812.804 873.57 812.815 868.795C812.837 859.028 816.112 841.932 820.539 828.475C824.804 815.51 824.821 815.229 823.626 778.405L822.425 741.374L809.992 716.753C796.142 689.325 790.721 681.692 785.63 682.455C778.424 683.536 778.304 687.607 784.885 707.605C793.796 734.678 793.875 734.253 776.502 752.819C768.47 761.402 757.265 772.69 751.602 777.903L741.306 787.381L740.754 808.031C740.136 831.138 741.715 827.441 721.843 852.285C717.253 858.023 708.609 870.638 702.634 880.319C696.659 890 689.893 899.323 687.598 901.036C678.584 907.767 648.093 906.425 638.495 898.875C633.285 894.777 632.956 888.671 637.54 881.152C639.359 878.17 650.134 862.773 661.485 846.938C694.772 800.503 697.212 796.405 702.043 778.822C708.659 754.743 709.006 751.915 706.532 742.247C704.165 732.997 681.546 685.724 676.32 679.104C672.692 674.508 662.651 671.829 653.414 672.992C649.742 673.454 632.844 675.634 615.862 677.837C598.88 680.039 575.739 682.772 564.438 683.91C549.369 685.427 542.853 686.795 540 689.039C534.949 693.012 522.165 717.834 516.541 734.589C513.412 743.909 511.668 753.803 510.55 768.576L508.973 789.415L515.975 811.292C523.38 834.427 524.224 835.717 540.827 849.245L548.268 855.308L545.266 861.009C541.738 867.707 515.218 898.168 508.769 902.928C504.328 906.206 504.305 906.205 498.558 902.653C490.241 897.513 484.343 897.905 483.042 903.683C479.285 920.364 479.322 920.301 472.741 921.389C464.481 922.754 420.808 922.753 413.98 921.387C410.748 920.74 407.952 918.849 406.937 916.622C404.869 912.082 407.363 906.89 426.154 876.618C438.656 856.479 439.795 853.873 442.574 839.066C444.217 830.314 447.174 816.654 449.145 808.71C452.593 794.814 452.662 792.757 450.971 754.468L449.212 714.67L439.805 676.283C434.63 655.171 429.016 631.701 427.328 624.128L424.259 610.358H650.89H877.521L878.541 615.783C881.456 631.281 900.427 661.33 918.857 679.641C928.004 688.729 931.368 693.306 932.214 697.816C933.711 705.798 932.33 725.112 929.823 731.232C928.124 735.38 927.498 735.755 925.641 733.735C922.397 730.207 909.603 699.82 909.603 695.642C909.603 693.656 908.525 689.451 907.207 686.297C904.079 678.81 876.698 650.414 872.606 650.414C868.417 650.414 866.21 656.722 866.21 668.697C866.21 680.341 869.46 698.2 877.311 729.691C880.516 742.542 883.555 759.089 884.065 766.462C884.907 778.622 884.589 780.666 880.636 788.466C875.546 798.512 874.779 804.311 873.077 845.685L871.807 876.561L859.936 895.755C841.238 925.987 836.487 929.139 809.632 929.128C796.804 929.123 792.566 928.487 788.379 925.934Z" fill="#3333FF"/>
<path fill-rule="evenodd" clip-rule="evenodd" d="M593 1186C920.505 1186 1186 920.505 1186 593C1186 265.495 920.505 0 593 0C265.495 0 0 265.495 0 593C0 920.505 265.495 1186 593 1186ZM593 1128C888.472 1128 1128 888.472 1128 593C1128 297.528 888.472 58 593 58C297.528 58 58 297.528 58 593C58 888.472 297.528 1128 593 1128Z" fill="#3333FF"/>
</g>
<defs>
<clipPath id="clip0_14_459">
<rect width="1186" height="1186" fill="white"/>
</clipPath>
</defs>
</svg>
